<svg data-v-423bf9ae="" xmlns="http://www.w3.org/2000/svg" viewBox="0 0 223.7398369501167 60" class="font"><!----><!----><!----><g data-v-423bf9ae="" id="e8902a67-ab2d-4d72-8f7a-173a1460e7f7" fill="#00bd7e" transform="matrix(5.420054349961095,0,0,5.420054349961095,-6.016260653853934,-21.788618860301426)"><path d="M2.27 12.15L2.27 12.15L4.56 12.15L4.56 12.15Q5.77 12.15 5.77 10.96L5.77 10.96L5.77 10.05L5.77 10.05Q5.77 8.86 4.48 8.86L4.48 8.86L2.27 8.86L2.27 8.86Q2.13 8.86 2.13 8.99L2.13 8.99L2.13 12.01L2.13 12.01Q2.13 12.15 2.27 12.15ZM2.27 8.01L2.27 8.01L4.42 8.01L4.42 8.01Q5.66 8.01 5.66 6.82L5.66 6.82L5.66 6.08L5.66 6.08Q5.66 4.89 4.47 4.89L4.47 4.89L2.27 4.89L2.27 4.89Q2.13 4.89 2.13 5.03L2.13 5.03L2.13 7.88L2.13 7.88Q2.13 8.01 2.27 8.01ZM1.11 12.82L1.11 12.82L1.11 4.21L1.11 4.21Q1.11 4.02 1.30 4.02L1.30 4.02L4.59 4.02L4.59 4.02Q5.56 4.02 6.10 4.56L6.10 4.56L6.10 4.56Q6.65 5.10 6.65 6.06L6.65 6.06L6.65 6.83L6.65 6.83Q6.65 8.08 5.47 8.44L5.47 8.44L5.47 8.44Q6.01 8.48 6.38 8.91L6.38 8.91L6.38 8.91Q6.76 9.34 6.76 10.04L6.76 10.04L6.76 10.98L6.76 10.98Q6.76 11.94 6.21 12.48L6.21 12.48L6.21 12.48Q5.66 13.02 4.69 13.02L4.69 13.02L1.30 13.02L1.30 13.02Q1.11 13.02 1.11 12.82ZM11.38 13.02L11.38 13.02L10.60 13.02L10.60 13.02Q9.65 13.02 9.11 12.47L9.11 12.47L9.11 12.47Q8.58 11.93 8.58 10.95L8.58 10.95L8.58 6.08L8.58 6.08Q8.58 5.88 8.78 5.88L8.78 5.88L9.41 5.88L9.41 5.88Q9.60 5.88 9.60 6.08L9.60 6.08L9.60 10.91L9.60 10.91Q9.60 12.12 10.77 12.12L10.77 12.12L11.56 12.12L11.56 12.12Q12.19 12.12 12.53 11.79L12.53 11.79L12.53 11.79Q12.87 11.45 12.87 10.84L12.87 10.84L12.87 6.08L12.87 6.08Q12.87 5.88 13.06 5.88L13.06 5.88L13.69 5.88L13.69 5.88Q13.89 5.88 13.89 6.08L13.89 6.08L13.89 12.82L13.89 12.82Q13.89 13.02 13.69 13.02L13.69 13.02L13.06 13.02L13.06 13.02Q12.87 13.02 12.87 12.82L12.87 12.82L12.87 12.28L12.81 12.28L12.81 12.28Q12.46 13.02 11.38 13.02ZM16.65 13.02L16.65 13.02L16.02 13.02L16.02 13.02Q15.82 13.02 15.82 12.82L15.82 12.82L15.82 6.08L15.82 6.08Q15.82 5.88 16.02 5.88L16.02 5.88L16.65 5.88L16.65 5.88Q16.84 5.88 16.84 6.08L16.84 6.08L16.84 6.62L16.90 6.62L16.90 6.62Q17.25 5.88 18.33 5.88L18.33 5.88L19.11 5.88L19.11 5.88Q20.06 5.88 20.59 6.43L20.59 6.43L20.59 6.43Q21.13 6.97 21.13 7.95L21.13 7.95L21.13 12.82L21.13 12.82Q21.13 13.02 20.93 13.02L20.93 13.02L20.30 13.02L20.30 13.02Q20.10 13.02 20.10 12.82L20.10 12.82L20.10 7.99L20.10 7.99Q20.10 6.78 18.93 6.78L18.93 6.78L18.14 6.78L18.14 6.78Q17.51 6.78 17.18 7.11L17.18 7.11L17.18 7.11Q16.84 7.45 16.84 8.06L16.84 8.06L16.84 12.82L16.84 12.82Q16.84 13.02 16.65 13.02ZM25.69 12.64L25.69 12.64L24.91 12.64L24.91 12.64Q23.95 12.64 23.42 12.10L23.42 12.10L23.42 12.10Q22.89 11.55 22.89 10.57L22.89 10.57L22.89 7.95L22.89 7.95Q22.89 6.97 23.44 6.43L23.44 6.43L23.44 6.43Q24.00 5.88 24.96 5.88L24.96 5.88L28 5.88L28 5.88Q28.20 5.88 28.20 6.08L28.20 6.08L28.20 13.02L28.20 13.02Q28.20 13.99 27.64 14.54L27.64 14.54L27.64 14.54Q27.09 15.09 26.12 15.09L26.12 15.09L23.55 15.09L23.55 15.09Q23.34 15.09 23.34 14.90L23.34 14.90L23.34 14.38L23.34 14.38Q23.34 14.18 23.55 14.18L23.55 14.18L26.00 14.18L26.00 14.18Q27.17 14.18 27.17 12.98L27.17 12.98L27.17 11.90L27.12 11.90L27.12 11.90Q26.75 12.64 25.69 12.64ZM27.17 10.46L27.17 10.46L27.17 6.90L27.17 6.90Q27.17 6.78 27.03 6.78L27.03 6.78L25.09 6.78L25.09 6.78Q23.91 6.78 23.91 7.99L23.91 7.99L23.91 10.53L23.91 10.53Q23.91 11.75 25.09 11.75L25.09 11.75L25.87 11.75L25.87 11.75Q26.50 11.75 26.84 11.41L26.84 11.41L26.84 11.41Q27.17 11.07 27.17 10.46ZM32.79 13.02L32.79 13.02L32.06 13.02L32.06 13.02Q31.09 13.02 30.54 12.47L30.54 12.47L30.54 12.47Q29.99 11.93 29.99 10.95L29.99 10.95L29.99 7.95L29.99 7.95Q29.99 6.97 30.54 6.43L30.54 6.43L30.54 6.43Q31.09 5.88 32.06 5.88L32.06 5.88L35.10 5.88L35.10 5.88Q35.29 5.88 35.29 6.08L35.29 6.08L35.29 12.82L35.29 12.82Q35.29 13.02 35.10 13.02L35.10 13.02L34.47 13.02L34.47 13.02Q34.27 13.02 34.27 12.82L34.27 12.82L34.27 12.28L34.22 12.28L34.22 12.28Q33.87 13.02 32.79 13.02ZM34.27 10.84L34.27 10.84L34.27 6.90L34.27 6.90Q34.27 6.78 34.13 6.78L34.13 6.78L32.17 6.78L32.17 6.78Q31.01 6.78 31.01 7.99L31.01 7.99L31.01 10.91L31.01 10.91Q31.01 12.12 32.17 12.12L32.17 12.12L32.97 12.12L32.97 12.12Q33.60 12.12 33.94 11.79L33.94 11.79L33.94 11.79Q34.27 11.45 34.27 10.84ZM39.89 13.02L39.89 13.02L39.16 13.02L39.16 13.02Q38.19 13.02 37.64 12.47L37.64 12.47L37.64 12.47Q37.09 11.93 37.09 10.95L37.09 10.95L37.09 7.95L37.09 7.95Q37.09 6.97 37.64 6.43L37.64 6.43L37.64 6.43Q38.19 5.88 39.16 5.88L39.16 5.88L42.20 5.88L42.20 5.88Q42.39 5.88 42.39 6.08L42.39 6.08L42.39 12.82L42.39 12.82Q42.39 13.02 42.20 13.02L42.20 13.02L41.57 13.02L41.57 13.02Q41.37 13.02 41.37 12.82L41.37 12.82L41.37 12.28L41.31 12.28L41.31 12.28Q40.96 13.02 39.89 13.02ZM41.37 10.84L41.37 10.84L41.37 6.90L41.37 6.90Q41.37 6.78 41.23 6.78L41.23 6.78L39.27 6.78L39.27 6.78Q38.11 6.78 38.11 7.99L38.11 7.99L38.11 10.91L38.11 10.91Q38.11 12.12 39.27 12.12L39.27 12.12L40.07 12.12L40.07 12.12Q40.70 12.12 41.03 11.79L41.03 11.79L41.03 11.79Q41.37 11.45 41.37 10.84Z"></path></g><!----><!----></svg>
